<svg xmlns="http://www.w3.org/2000/svg" xml:space="preserve" width="2000" height="229" data-id="lg_GOTknZOj4nPP2w9MLO" data-version="1" viewBox="0 0 2000 229"><g data-padding="20"><g transform="translate(10 3.908)scale(.96587)"><rect width="560" height="229.39" x="335.175" y="-400.455" fill="none" rx="0" ry="0" transform="translate(400.5 400.26)"/><path fill="#065431" d="M750.115 99.5q4.06-13.6 6.59-21.01 2.54-7.41 4.98-13.3 2.43-5.88 5.58-11.36t6.9-10.05q3.76-4.57 8.02-7.21t8.93-2.64 9.75 3.66q8.12 20.3 9.94 27.2 2.44 10.15 4.47 28.62 1.83-4.67 4.16-9.84 2.33-5.18 4.57-10.46 6.29-13.4 7.91-20.3 4.47-14.21 18.48-21.31 12.18-6.09 22.73-3.86 4.27.81 5.99 3.45 1.73 2.64 0 5.48-1.72 2.84-1.22 5.38.51 2.54.92 5.99.61 9.34-3.25 16.54-3.86 7.21-7.92 17.87t-8.22 22.63q-4.16 11.98-8.42 24.36-4.27 12.39-8.33 22.54-8.93 23.34-14.61 25.78-7.72 4.67-11.37 5.48-4.67.81-13.2 0-5.27-.41-9.13-13.6-2.23-7.11-4.06-19.69-3.25-21.93-4.47-24.16-8.12 26.39-11.47 33.29t-5.07 9.14q-1.73 2.23-4.16 5.88-2.64 7.31-12.59 10.76-8.52 3.25-15.43 1.02-7.51-2.44-4.46-9.34 2.23-24.36 17.46-76.94m207.05-8.31.81.2q.4 0 .4.2 5.28-2.03 8.73 3.05 2.24 3.45 3.45 10.56.41 9.74-2.03 26.99-4.67 34.92-5.07 41.62.4 7.1-8.73 9.74-7.92 2.44-15.83-.2-8.33-2.84-6.91-8.73-1.62 3.05-3.24 4.37-1.63 1.32-6.4 3.65t-13.5 3.86q-8.73 1.52-17.46.81t-15.93-4.26q-7.21-3.56-9.64-11.07-4.67-14.61 1.21-37.15 4.06-14.82 14.62-26.18 12.18-13 27.61-21.52 11.57-6.29 22.33-7.51 3.65-.41 6.39.2t5.89 1.22 5.99 1.83q7.31 3.04 7.31 8.32m-37.56 53.79q1.42-2.84 2.33-7.1.92-4.26 2.54-9.34-16.44 6.7-25.17 16.44-9.54 10.76 1.22 14.82 9.34 2.44 13.6-3.04 1.83-2.44 3.25-6.09 1.42-3.66 3.45-7.51-.61 1.01-1.22 1.82m98.25-56.84q1.02 12.18 1.83 24.46.81 12.29 2.44 24.47 3.65-7.51 6.8-15.84 3.14-8.32 6.8-16.44 8.73-19.08 19.28-28.01 6.5-7.11 19.49-7.11 7.71 0 9.74 4.87 1.02 2.44-.61 6.5 9.95 7.1 4.27 16.44-1.63 2.44-3.25 4.47-8.73 14.61-16.04 27-11.97 20.5-21.52 35.12-3.24 4.87-9.03 10.86-5.78 5.98-12.69 10.25-16.24 10.55-25.78 3.85-6.29-.81-11.77-4.06-5.48-3.24-8.32-8.52-4.27-11.17 2.03-51.16 1.42-8.93 1.82-13.4.41-4.46 1.02-8.12.61-3.65 1.01-6.9.41-3.25.81-6.6.41-3.34 1.83-6.19 3.45-6.49 12.59-7.1h2.43q3.66.81 6.91 1.83 5.48 2.03 7.3 7.71.21.61.61 1.62m151.45 3.05.81.2q.41 0 .41.2 5.28-2.03 8.73 3.05 2.23 3.45 3.45 10.56.4 9.74-2.03 26.99-4.67 34.92-5.08 41.62.41 7.1-8.73 9.74-7.91 2.44-15.83-.2-8.32-2.84-6.9-8.73-1.63 3.05-3.25 4.37t-6.39 3.65-13.5 3.86q-8.73 1.52-17.46.81t-15.94-4.26q-7.2-3.56-9.64-11.07-4.67-14.61 1.22-37.15 4.06-14.82 14.61-26.18 12.18-13 27.61-21.52 11.57-6.29 22.33-7.51 3.66-.41 6.4.2t5.88 1.22q3.15.61 5.99 1.83 7.31 3.04 7.31 8.32m-37.55 53.79q1.42-2.84 2.33-7.1t2.54-9.34q-16.45 6.7-25.17 16.44-9.55 10.76 1.21 14.82 9.34 2.44 13.6-3.04 1.83-2.44 3.25-6.09 1.42-3.66 3.45-7.51-.61 1.01-1.21 1.82m94.58-49.74q7.51-5.08 17.26-3.05 9.74 2.24 10.96 8.53 1.62-3.86 2.44-7.71 9.13-41.21 20.09-62.93 3.45-6.7 7.11-9.34 9.54-6.09 20.1-1.63 4.26 1.83 6.69 4.98 2.44 3.14 1.93 5.78-.5 2.64.41 4.27.91 1.62 2.13 3.24 3.25 3.86 2.64 6.7-4.06 16.04-10.86 33.19-6.8 17.16-13.91 34.21-7.1 17.05-12.89 33.59-5.78 16.55-7.61 31.37 0 3.86-3.25 7-3.25 3.15-8.12 4.98-11.57 4.06-21.52-1.63v-1.22q-2.03-.61-2.94-.81t-1.32-.81q-.61-1.02-1.01-6.29-4.06 6.29-7.92 7.71t-7.92 1.42q-19.69 0-28.01-7.1-7.31-6.09-6.9-19.9.4-15.43 11.36-34.51 12.59-21.72 31.06-30.04m-.2 66.58q6.5 2.24 8.93-3.04 1.42-2.64 2.74-6.9 1.32-4.27 3.35-9.95l.81-4.06q-4.87-2.84-8.83-.81-3.95 2.03-6.39 6.29t-2.84 9.54q-.41 5.28 2.23 8.93"/></g><path fill="transparent" stroke="transparent" d="M707 0h586v229H707z"/></g></svg>